<svg width="28" height="28" viewBox="0 0 28 28" fill="none" xmlns="http://www.w3.org/2000/svg">
<g id="Frame">
<path id="Vector" d="M18.1883 16.765C18.4313 17.7929 18.4384 18.8625 18.2093 19.8936C17.9802 20.9246 17.5207 21.8905 16.8652 22.7188C16.2098 23.5471 15.3754 24.2163 14.4246 24.6763C13.4738 25.1363 12.4312 25.3752 11.375 25.375V19.775M18.1883 16.765C20.4165 15.1419 22.2292 13.0147 23.4782 10.5573C24.7272 8.09978 25.3772 5.38168 25.375 2.625C22.6185 2.62301 19.9007 3.27307 17.4434 4.52208C14.9861 5.77109 12.8591 7.58363 11.2362 9.81167M18.1883 16.765C16.1606 18.2482 13.837 19.275 11.375 19.775M11.375 19.775C11.2548 19.7995 11.1335 19.8228 11.0122 19.845C9.95375 19.0057 8.99545 18.0474 8.15617 16.989C8.17821 16.8674 8.20037 16.7461 8.225 16.625M11.2362 9.81167C10.2082 9.56853 9.13847 9.56121 8.10725 9.79025C7.07602 10.0193 6.11 10.4788 5.28158 11.1342C4.45317 11.7897 3.78385 12.6241 3.32377 13.575C2.8637 14.5259 2.62481 15.5686 2.625 16.625H8.225M11.2362 9.81167C9.7532 11.8391 8.72521 14.1634 8.225 16.625M5.61283 19.4133C4.84538 19.984 4.24868 20.7538 3.88736 21.6393C3.52604 22.5248 3.41387 23.4923 3.563 24.437C4.5078 24.586 5.47536 24.4737 6.36087 24.1121C7.24639 23.7506 8.01611 23.1537 8.58667 22.386M19.25 10.5C19.25 10.9641 19.0656 11.4093 18.7374 11.7374C18.4092 12.0656 17.9641 12.25 17.5 12.25C17.0359 12.25 16.5908 12.0656 16.2626 11.7374C15.9344 11.4093 15.75 10.9641 15.75 10.5C15.75 10.0359 15.9344 9.59076 16.2626 9.26257C16.5908 8.93438 17.0359 8.75 17.5 8.75C17.9641 8.75 18.4092 8.93438 18.7374 9.26257C19.0656 9.59076 19.25 10.0359 19.25 10.5Z" stroke="white" stroke-width="1.75" stroke-linecap="round" stroke-linejoin="round"/>
</g>
</svg>
