<svg width="28" height="28" viewBox="0 0 28 28" fill="none" xmlns="http://www.w3.org/2000/svg">
<g id="Frame">
<path id="Vector" d="M25.3747 7.87616C25.3748 8.6034 25.2237 9.32273 24.9312 9.98854C24.6387 10.6543 24.211 11.2521 23.6753 11.7439C23.1396 12.2358 22.5075 12.6109 21.8192 12.8457C21.1309 13.0804 20.4013 13.1696 19.6767 13.1075C18.4214 13.0013 17.0354 13.1903 16.235 14.1622L7.89103 24.2935C7.62782 24.6143 7.30035 24.8765 6.92969 25.0631C6.55904 25.2498 6.15341 25.3567 5.73892 25.3771C5.32443 25.3975 4.91026 25.3309 4.52306 25.1816C4.13587 25.0323 3.78424 24.8035 3.49079 24.5101C3.19735 24.2166 2.96859 23.865 2.81926 23.4778C2.66992 23.0906 2.60331 22.6764 2.62371 22.2619C2.64411 21.8475 2.75107 21.4418 2.93771 21.0712C3.12435 20.7005 3.38652 20.373 3.70736 20.1098L13.8387 11.7658C14.8105 10.9655 14.9995 9.57949 14.8934 8.32416C14.815 7.41203 14.9766 6.49527 15.362 5.66486C15.7474 4.83444 16.3433 4.11925 17.0904 3.59024C17.8376 3.06122 18.7101 2.73679 19.6214 2.64913C20.5327 2.56146 21.451 2.71362 22.2854 3.0905L18.4634 6.91249C18.6112 7.55194 18.9357 8.13702 19.3998 8.6011C19.8638 9.06519 20.4489 9.38963 21.0884 9.53749L24.9104 5.71549C25.209 6.37466 25.3747 7.10616 25.3747 7.87616Z" stroke="white" stroke-width="1.75" stroke-linecap="round" stroke-linejoin="round"/>
<path id="Vector_2" d="M5.67773 22.3125H5.68707V22.3218H5.67773V22.3125Z" stroke="white" stroke-width="1.75" stroke-linecap="round" stroke-linejoin="round"/>
</g>
</svg>
