<svg width="23" height="23" viewBox="0 0 23 23" fill="none" xmlns="http://www.w3.org/2000/svg">
<g id="solar:danger-bold">
<path id="Vector" fill-rule="evenodd" clip-rule="evenodd" d="M8.91076 4.47746C10.7505 3.38846 11.67 2.84351 12.6801 2.84351C13.6902 2.84351 14.6096 3.38755 16.4494 4.47746L17.0714 4.84559C18.9112 5.9355 19.8307 6.48045 20.3357 7.37722C20.8408 8.27489 20.8408 9.36298 20.8408 11.5428V12.2791C20.8408 14.458 20.8408 15.5479 20.3357 16.4446C19.8307 17.3423 18.9112 17.8864 17.0714 18.9754L16.4494 19.3444C14.6096 20.4334 13.6902 20.9784 12.6801 20.9784C11.67 20.9784 10.7505 20.4343 8.91076 19.3444L8.28874 18.9754C6.44896 17.8873 5.52952 17.3414 5.02446 16.4446C4.51941 15.547 4.51941 14.4589 4.51941 12.2791V11.5428C4.51941 9.36298 4.51941 8.27399 5.02446 7.37722C5.52952 6.47954 6.44896 5.9355 8.28874 4.84559L8.91076 4.47746ZM13.5868 15.5379C13.5868 15.7784 13.4913 16.009 13.3213 16.1791C13.1512 16.3491 12.9206 16.4446 12.6801 16.4446C12.4396 16.4446 12.209 16.3491 12.0389 16.1791C11.8689 16.009 11.7733 15.7784 11.7733 15.5379C11.7733 15.2974 11.8689 15.0668 12.0389 14.8967C12.209 14.7267 12.4396 14.6312 12.6801 14.6312C12.9206 14.6312 13.1512 14.7267 13.3213 14.8967C13.4913 15.0668 13.5868 15.2974 13.5868 15.5379ZM12.6801 6.69716C12.8605 6.69716 13.0334 6.76881 13.161 6.89635C13.2885 7.02388 13.3601 7.19686 13.3601 7.37722V12.8177C13.3601 12.998 13.2885 13.171 13.161 13.2985C13.0334 13.4261 12.8605 13.4977 12.6801 13.4977C12.4997 13.4977 12.3268 13.4261 12.1992 13.2985C12.0717 13.171 12 12.998 12 12.8177V7.37722C12 7.19686 12.0717 7.02388 12.1992 6.89635C12.3268 6.76881 12.4997 6.69716 12.6801 6.69716Z" fill="#9E1212"/>
</g>
</svg>
